<?xml version="1.0" encoding="UTF-8" standalone="no"?>
<svg
   xmlns:dc="http://purl.org/dc/elements/1.1/"
   xmlns:cc="http://creativecommons.org/ns#"
   xmlns:rdf="http://www.w3.org/1999/02/22-rdf-syntax-ns#"
   xmlns:svg="http://www.w3.org/2000/svg"
   xmlns="http://www.w3.org/2000/svg"
   xmlns:sodipodi="http://sodipodi.sourceforge.net/DTD/sodipodi-0.dtd"
   xmlns:inkscape="http://www.inkscape.org/namespaces/inkscape"
   viewBox="0 0 300 55"
   version="1.1"
   id="svg166"
   sodipodi:docname="pitax_banner1.svg"
   width="300"
   height="55"
   inkscape:version="0.92.3 (2405546, 2018-03-11)"
   inkscape:export-filename="E:\GitHub\pomocna-dlon-dev\img\pitax\pitax_banner1.png"
   inkscape:export-xdpi="157.12"
   inkscape:export-ydpi="157.12">
  <metadata
     id="metadata170">
    <rdf:RDF>
      <cc:Work
         rdf:about="">
        <dc:format>image/svg+xml</dc:format>
        <dc:type
           rdf:resource="http://purl.org/dc/dcmitype/StillImage" />
        <dc:title></dc:title>
      </cc:Work>
    </rdf:RDF>
  </metadata>
  <sodipodi:namedview
     pagecolor="#ffffff"
     bordercolor="#666666"
     borderopacity="1"
     objecttolerance="10"
     gridtolerance="10"
     guidetolerance="10"
     inkscape:pageopacity="0"
     inkscape:pageshadow="2"
     inkscape:window-width="1991"
     inkscape:window-height="997"
     id="namedview168"
     showgrid="false"
     showguides="true"
     inkscape:guide-bbox="true"
     inkscape:snap-bbox="true"
     inkscape:snap-bbox-midpoints="true"
     inkscape:object-nodes="false"
     inkscape:snap-nodes="false"
     inkscape:zoom="2.8284271"
     inkscape:cx="87.459383"
     inkscape:cy="17.440894"
     inkscape:window-x="0"
     inkscape:window-y="0"
     inkscape:window-maximized="0"
     inkscape:current-layer="svg166"
     inkscape:pagecheckerboard="true">
    <sodipodi:guide
       position="150,105.593"
       orientation="1,0"
       id="guide4690"
       inkscape:locked="true"
       inkscape:label=""
       inkscape:color="rgb(0,0,255)" />
    <sodipodi:guide
       position="0,0"
       orientation="0,300"
       id="guide5052"
       inkscape:locked="false" />
    <sodipodi:guide
       position="300,0"
       orientation="-55,0"
       id="guide5054"
       inkscape:locked="false" />
    <sodipodi:guide
       position="300,55"
       orientation="0,-300"
       id="guide5056"
       inkscape:locked="false" />
    <sodipodi:guide
       position="0,55"
       orientation="55,0"
       id="guide5058"
       inkscape:locked="false" />
  </sodipodi:namedview>
  <defs
     id="defs4">
    <inkscape:path-effect
       effect="envelope"
       id="path-effect5046"
       is_visible="true"
       yy="true"
       xx="true"
       bendpath1="m 30.847458,-52.372883 159.279662,0.59322"
       bendpath2="M 207.62712,-52.372883 V 1.6101685"
       bendpath3="M 30.847458,1.6101685 H 207.62712"
       bendpath4="M 30.847458,-52.372883 V 1.6101685"
       bendpath1-nodetypes="cc" />
    <inkscape:path-effect
       effect="bend_path"
       id="path-effect5044"
       is_visible="true"
       bendpath="M 30.847458,-25.381357 H 207.62712"
       prop_scale="1"
       scale_y_rel="false"
       vertical="false" />
    <style
       id="style2">
      .cls-1 {
        fill: #fff;
      }

      .cls-2, .cls-3 {
        fill-rule: evenodd;
      }

      .cls-2, .cls-4 {
        fill: #ff781e;
      }

      .cls-5 {
        fill: #f67a08;
      }

      .cls-3 {
        fill: #ffc8a4;
      }

      .cls-6 {
        fill: #362967;
      }
    </style>
  </defs>
  <g
     id="sygnet"
     transform="matrix(0.96162213,0,0,0.96162213,108.92019,-68.774632)">
    <path
       class="cls-2"
       d="m 36.14,107.39 c 5.48,0 9.93,4.43 9.93,9.89 0,5.46 -4.45,9.89 -9.93,9.89 -5.48,0 -9.93,-4.43 -9.93,-9.89 0,-5.46 4.45,-9.89 9.93,-9.89 z"
       id="path11"
       inkscape:connector-curvature="0"
       style="fill:#ff781e;fill-rule:evenodd" />
    <path
       class="cls-5"
       d="M 47.66,105.31 H 43 l -8.19,15.99 h 4.66 z"
       id="path13"
       inkscape:connector-curvature="0"
       style="fill:#f67a08" />
    <path
       class="cls-3"
       d="m 33.78,123.33 h 4.66 l 5.93,-11.59 c -0.94,-1.36 -1.91,-2.14 -3.12,-3 z"
       id="path15"
       inkscape:connector-curvature="0"
       style="fill:#ffc8a4;fill-rule:evenodd" />
    <path
       class="cls-1"
       d="m 28.48,113.66 5.11,9.67 h 4.84 l -5.11,-9.67 z"
       id="path17"
       inkscape:connector-curvature="0"
       style="fill:#ffffff" />
  </g>
  <g
     id="txt"
     transform="matrix(0.96162213,0,0,0.96162213,96.334321,-68.941021)">
    <g
       id="g36"
       transform="translate(12.478914)">
      <path
         class="cls-1"
         d="m 53.12,112.51 h 2.33 c 1.05,0 1.83,0.07 2.33,0.25 1.02,0.39 1.65,1.29 1.65,2.42 0,0.95 -0.45,1.75 -1.16,2.2 -0.71,0.45 -1.75,0.5 -3.14,0.5 h -0.99 v 4.68 H 53.13 V 112.5 Z m 1.01,0.98 v 3.42 c 0.57,0.01 1.15,0 1.67,0 0.87,0 1.54,-0.06 1.99,-0.42 0.35,-0.28 0.59,-0.8 0.59,-1.3 0,-0.5 -0.25,-1.02 -0.63,-1.32 -0.45,-0.34 -1.05,-0.38 -1.83,-0.38 h -1.78 z"
         id="path20"
         inkscape:connector-curvature="0"
         style="fill:#ffffff" />
      <path
         class="cls-1"
         d="m 61.75,112.51 h 1.01 v 10.06 h -1.01 z"
         id="path22"
         inkscape:connector-curvature="0"
         style="fill:#ffffff" />
      <path
         class="cls-1"
         d="m 64.55,113.49 v -0.98 h 5.52 v 0.98 h -2.24 v 9.08 h -1.01 v -9.08 z"
         id="path24"
         inkscape:connector-curvature="0"
         style="fill:#ffffff" />
      <path
         class="cls-1"
         d="m 77.59,115.13 h 0.94 v 7.44 h -0.94 v -1.27 c -0.81,0.98 -1.83,1.46 -3,1.46 -2.17,0 -3.81,-1.81 -3.81,-3.92 0,-2.11 1.68,-3.89 3.84,-3.89 1.2,0 2.23,0.52 2.97,1.55 v -1.36 z m -5.83,3.73 c 0,1.61 1.26,3.03 2.93,3.03 1.53,0 2.97,-1.15 2.97,-3 0,-1.72 -1.29,-3.03 -2.96,-3.03 -1.67,0 -2.94,1.4 -2.94,3 z"
         id="path26"
         inkscape:connector-curvature="0"
         style="fill:#ffffff" />
      <path
         class="cls-1"
         d="m 80.32,115.13 h 1.15 l 1.98,2.75 1.98,-2.75 h 1.13 l -2.54,3.53 2.86,3.91 h -1.16 l -2.27,-3.12 -2.24,3.12 h -1.15 l 2.82,-3.91 -2.55,-3.53 z"
         id="path28"
         inkscape:connector-curvature="0"
         style="fill:#ffffff" />
      <path
         class="cls-1"
         d="m 90.27,121.91 c 0,0.48 -0.38,0.85 -0.84,0.85 -0.46,0 -0.84,-0.39 -0.84,-0.85 0,-0.46 0.38,-0.85 0.84,-0.85 0.46,0 0.84,0.38 0.84,0.85 z"
         id="path30"
         inkscape:connector-curvature="0"
         style="fill:#ffffff" />
      <path
         class="cls-1"
         d="m 93.72,116.49 c 0.74,-1.04 1.76,-1.55 2.96,-1.55 2.17,0 3.85,1.78 3.85,3.89 0,2.11 -1.64,3.92 -3.82,3.92 -1.16,0 -2.17,-0.48 -2.98,-1.46 v 3.99 h -0.95 v -10.16 h 0.95 v 1.36 z m -0.07,2.4 c 0,1.85 1.43,3 2.96,3 1.65,0 2.94,-1.4 2.94,-3.03 0,-1.63 -1.23,-3 -2.94,-3 -1.71,0 -2.96,1.3 -2.96,3.03 z"
         id="path32"
         inkscape:connector-curvature="0"
         style="fill:#ffffff" />
      <path
         class="cls-1"
         d="m 102.65,112.25 h 0.95 v 10.31 h -0.95 z"
         id="path34"
         inkscape:connector-curvature="0"
         style="fill:#ffffff" />
    </g>
    <g
       id="g160">
      <path
         class="cls-1"
         d="m 131.97,124.84 c -1.19,0 -2.19,-0.19 -3.01,-0.57 -0.82,-0.38 -1.43,-0.89 -1.85,-1.55 -0.42,-0.65 -0.63,-1.41 -0.63,-2.26 h 2.86 c 0,0.34 0.09,0.65 0.28,0.94 0.19,0.29 0.47,0.52 0.85,0.69 0.38,0.17 0.88,0.26 1.49,0.26 0.55,0 1.01,-0.07 1.39,-0.22 0.37,-0.14 0.65,-0.34 0.85,-0.6 0.19,-0.26 0.29,-0.56 0.29,-0.89 0,-0.42 -0.18,-0.75 -0.54,-1 -0.36,-0.25 -0.94,-0.4 -1.75,-0.48 l -0.99,-0.09 c -1.31,-0.11 -2.35,-0.52 -3.13,-1.22 -0.78,-0.71 -1.17,-1.64 -1.17,-2.81 0,-0.84 0.2,-1.57 0.6,-2.18 0.4,-0.61 0.96,-1.08 1.68,-1.41 0.72,-0.33 1.57,-0.5 2.56,-0.5 0.99,0 1.92,0.18 2.66,0.53 0.74,0.35 1.3,0.85 1.7,1.49 0.4,0.64 0.59,1.4 0.59,2.26 h -2.88 c 0,-0.32 -0.08,-0.62 -0.23,-0.89 -0.16,-0.27 -0.39,-0.49 -0.69,-0.66 -0.31,-0.17 -0.69,-0.25 -1.14,-0.25 -0.43,0 -0.79,0.07 -1.09,0.22 -0.29,0.14 -0.51,0.34 -0.66,0.58 -0.14,0.25 -0.22,0.51 -0.22,0.8 0,0.37 0.13,0.7 0.4,0.97 0.26,0.28 0.7,0.44 1.3,0.49 l 1.01,0.09 c 0.96,0.08 1.81,0.29 2.54,0.62 0.73,0.33 1.3,0.78 1.72,1.35 0.41,0.57 0.62,1.26 0.62,2.08 0,0.82 -0.22,1.58 -0.66,2.21 -0.44,0.63 -1.06,1.12 -1.86,1.47 -0.8,0.35 -1.76,0.52 -2.88,0.52 z"
         id="path150"
         inkscape:connector-curvature="0"
         style="fill:#ffffff" />
      <path
         class="cls-1"
         d="m 138.02,113.94 v -2.57 h 10.35 v 2.57 z m 3.69,10.57 v -10.93 h 2.95 v 10.93 z"
         id="path152"
         inkscape:connector-curvature="0"
         style="fill:#ffffff" />
      <path
         class="cls-1"
         d="m 147.52,124.5 4.34,-13.14 h 4.77 l 4.5,13.14 h -3.06 l -3.64,-11.11 0.94,0.38 h -2.32 l 0.97,-0.38 -3.55,11.11 z m 3.29,-3.26 0.9,-2.45 h 5.15 l 0.92,2.45 z"
         id="path154"
         inkscape:connector-curvature="0"
         style="fill:#ffffff" />
      <path
         class="cls-1"
         d="m 162.54,124.5 v -13.25 h 2.95 v 13.25 z m 2.16,-4.21 v -2.32 h 3.24 c 0.43,0 0.81,-0.09 1.12,-0.26 0.32,-0.17 0.56,-0.42 0.74,-0.74 0.17,-0.32 0.26,-0.69 0.26,-1.11 0,-0.42 -0.09,-0.79 -0.26,-1.11 -0.17,-0.32 -0.42,-0.56 -0.74,-0.74 -0.32,-0.17 -0.69,-0.26 -1.12,-0.26 h -3.24 v -2.5 h 3.01 c 1.09,0 2.04,0.17 2.84,0.5 0.8,0.33 1.42,0.82 1.85,1.47 0.43,0.65 0.65,1.46 0.65,2.45 v 0.29 c 0,0.97 -0.22,1.78 -0.66,2.42 -0.44,0.64 -1.06,1.12 -1.85,1.44 -0.8,0.32 -1.74,0.48 -2.83,0.48 h -3.01 z m 5.81,4.21 -3.85,-5.65 h 3.24 l 4.03,5.65 z"
         id="path156"
         inkscape:connector-curvature="0"
         style="fill:#ffffff" />
      <path
         class="cls-1"
         d="m 174.29,113.94 v -2.57 h 10.35 v 2.57 z m 3.69,10.57 v -10.93 h 2.95 v 10.93 z"
         id="path158"
         inkscape:connector-curvature="0"
         style="fill:#ffffff" />
    </g>
  </g>
  <g
     id="arrow"
     transform="translate(88.277542,-73.777542)">
    <polygon
       class="cls-1"
       points="200.37,118.04 192.9,111.36 192.9,124.72 "
       id="polygon163"
       style="fill:#ffffff" />
  </g>
  <text
     xml:space="preserve"
     style="font-style:normal;font-variant:normal;font-weight:normal;font-stretch:normal;font-size:40px;line-height:1.25;font-family:Arial;-inkscape-font-specification:Arial;letter-spacing:0px;word-spacing:0px;fill:#000000;fill-opacity:1;stroke:none"
     x="14.912766"
     y="16.17355"
     id="text4838"><tspan
       sodipodi:role="line"
       id="tspan4836"
       x="14.912766"
       y="16.17355"
       style="font-style:normal;font-variant:normal;font-weight:bold;font-stretch:condensed;font-size:18.66666603px;font-family:Arial;-inkscape-font-specification:'Arial Bold Condensed';fill:#ffffff;fill-opacity:1">Przekaż swój 1,5% naszej organizacji</tspan></text>
  <g
     id="g148"
     transform="matrix(0.75741528,0,0,0.75741528,63.942475,-32.531062)">
    <path
       class="cls-1"
       d="M 27.35,80.37 V 70.08 h 1.68 v 10.29 z m 1.4,-3.35 v -1.47 h 2.13 c 0.45,0 0.82,-0.09 1.11,-0.26 0.29,-0.17 0.52,-0.41 0.68,-0.71 0.16,-0.3 0.24,-0.65 0.24,-1.03 0,-0.38 -0.08,-0.74 -0.24,-1.04 -0.16,-0.3 -0.39,-0.54 -0.68,-0.71 -0.29,-0.17 -0.67,-0.25 -1.11,-0.25 h -2.13 v -1.47 h 1.93 c 0.85,0 1.57,0.14 2.15,0.41 0.58,0.28 1.03,0.66 1.33,1.16 0.3,0.5 0.46,1.09 0.46,1.79 v 0.22 c 0,0.68 -0.15,1.27 -0.46,1.78 -0.3,0.5 -0.75,0.89 -1.33,1.17 -0.58,0.28 -1.3,0.41 -2.15,0.41 z"
       id="path104"
       inkscape:connector-curvature="0"
       style="fill:#ffffff" />
    <path
       class="cls-1"
       d="m 35.99,80.37 v -7.55 h 1.3 v 3.15 h -0.06 c 0,-1.08 0.24,-1.89 0.71,-2.43 0.48,-0.54 1.18,-0.8 2.11,-0.8 h 0.27 v 1.44 h -0.5 c -0.71,0 -1.25,0.19 -1.63,0.57 -0.38,0.38 -0.57,0.92 -0.57,1.62 v 4 h -1.64 z"
       id="path106"
       inkscape:connector-curvature="0"
       style="fill:#ffffff" />
    <path
       class="cls-1"
       d="m 45.09,80.62 c -0.66,0 -1.25,-0.11 -1.75,-0.33 -0.5,-0.22 -0.93,-0.51 -1.27,-0.88 -0.34,-0.36 -0.61,-0.78 -0.78,-1.24 -0.18,-0.46 -0.27,-0.94 -0.27,-1.44 v -0.28 c 0,-0.5 0.09,-0.98 0.27,-1.44 0.18,-0.47 0.45,-0.88 0.8,-1.25 0.35,-0.37 0.78,-0.66 1.28,-0.88 0.5,-0.21 1.08,-0.32 1.72,-0.32 0.64,0 1.22,0.11 1.71,0.32 0.49,0.21 0.93,0.51 1.28,0.88 0.35,0.37 0.62,0.79 0.8,1.25 0.18,0.46 0.27,0.95 0.27,1.44 v 0.28 c 0,0.5 -0.09,0.97 -0.27,1.44 -0.18,0.46 -0.44,0.88 -0.78,1.24 -0.34,0.36 -0.77,0.66 -1.27,0.88 -0.5,0.22 -1.09,0.33 -1.75,0.33 z m 0,-1.43 c 0.51,0 0.95,-0.11 1.32,-0.34 0.36,-0.23 0.64,-0.54 0.83,-0.93 0.19,-0.39 0.29,-0.83 0.29,-1.32 0,-0.49 -0.1,-0.94 -0.29,-1.33 -0.2,-0.39 -0.48,-0.7 -0.84,-0.93 C 46.04,74.11 45.6,74 45.1,74 c -0.5,0 -0.94,0.12 -1.3,0.34 -0.36,0.23 -0.64,0.54 -0.84,0.93 -0.2,0.39 -0.29,0.83 -0.29,1.33 0,0.5 0.1,0.92 0.29,1.32 0.19,0.39 0.47,0.7 0.83,0.93 0.36,0.23 0.8,0.34 1.32,0.34 z"
       id="path108"
       inkscape:connector-curvature="0"
       style="fill:#ffffff" />
    <path
       class="cls-1"
       d="m 53.48,80.59 c -1.02,0 -1.81,-0.21 -2.37,-0.64 -0.56,-0.43 -0.86,-1.02 -0.89,-1.78 h 1.51 c 0.02,0.28 0.16,0.54 0.43,0.77 0.27,0.23 0.71,0.35 1.33,0.35 0.52,0 0.93,-0.1 1.23,-0.31 0.3,-0.21 0.45,-0.46 0.45,-0.77 0,-0.28 -0.11,-0.5 -0.33,-0.67 -0.22,-0.16 -0.59,-0.27 -1.11,-0.33 l -0.74,-0.07 c -0.78,-0.08 -1.39,-0.31 -1.84,-0.69 -0.45,-0.37 -0.68,-0.88 -0.68,-1.51 0,-0.5 0.13,-0.93 0.38,-1.27 0.25,-0.35 0.6,-0.61 1.04,-0.8 0.44,-0.19 0.95,-0.28 1.53,-0.28 0.9,0 1.62,0.2 2.17,0.59 0.55,0.39 0.83,0.98 0.85,1.74 h -1.5 c -0.02,-0.29 -0.15,-0.53 -0.41,-0.73 -0.25,-0.2 -0.62,-0.29 -1.12,-0.29 -0.47,0 -0.82,0.09 -1.07,0.28 -0.25,0.19 -0.37,0.42 -0.37,0.71 0,0.26 0.09,0.47 0.28,0.62 0.19,0.15 0.49,0.25 0.91,0.29 l 0.74,0.07 c 0.85,0.09 1.52,0.33 2.02,0.71 0.5,0.38 0.75,0.9 0.75,1.57 0,0.49 -0.13,0.91 -0.41,1.27 -0.27,0.36 -0.65,0.65 -1.13,0.85 -0.48,0.2 -1.04,0.3 -1.67,0.3 z"
       id="path110"
       inkscape:connector-curvature="0"
       style="fill:#ffffff" />
    <path
       class="cls-1"
       d="m 57.41,74.04 v -1.22 h 5.26 v 1.22 z m 4.13,6.41 c -0.62,0 -1.15,-0.08 -1.58,-0.25 -0.43,-0.17 -0.75,-0.46 -0.97,-0.87 -0.22,-0.41 -0.33,-0.97 -0.33,-1.67 v -7.04 h 1.55 v 7.18 c 0,0.39 0.11,0.69 0.32,0.9 0.21,0.21 0.51,0.32 0.89,0.32 h 1.26 v 1.43 h -1.13 z"
       id="path112"
       inkscape:connector-curvature="0"
       style="fill:#ffffff" />
    <path
       class="cls-1"
       d="m 67.59,80.62 c -0.66,0 -1.25,-0.11 -1.75,-0.33 -0.5,-0.22 -0.93,-0.51 -1.27,-0.88 -0.34,-0.36 -0.61,-0.78 -0.78,-1.24 -0.18,-0.46 -0.27,-0.94 -0.27,-1.44 v -0.28 c 0,-0.5 0.09,-0.98 0.27,-1.44 0.18,-0.47 0.45,-0.88 0.8,-1.25 0.35,-0.37 0.78,-0.66 1.28,-0.88 0.5,-0.21 1.08,-0.32 1.72,-0.32 0.64,0 1.22,0.11 1.71,0.32 0.49,0.21 0.93,0.51 1.28,0.88 0.35,0.37 0.62,0.79 0.8,1.25 0.18,0.46 0.27,0.95 0.27,1.44 v 0.28 c 0,0.5 -0.09,0.97 -0.27,1.44 -0.18,0.46 -0.44,0.88 -0.78,1.24 -0.34,0.36 -0.77,0.66 -1.27,0.88 -0.5,0.22 -1.09,0.33 -1.75,0.33 z m 0,-1.43 c 0.51,0 0.95,-0.11 1.32,-0.34 0.36,-0.23 0.64,-0.54 0.83,-0.93 0.19,-0.39 0.29,-0.83 0.29,-1.32 0,-0.49 -0.1,-0.94 -0.29,-1.33 -0.2,-0.39 -0.48,-0.7 -0.84,-0.93 C 68.54,74.11 68.1,74 67.6,74 c -0.5,0 -0.94,0.12 -1.3,0.34 -0.36,0.23 -0.64,0.54 -0.84,0.93 -0.2,0.39 -0.29,0.83 -0.29,1.33 0,0.5 0.1,0.92 0.29,1.32 0.19,0.39 0.47,0.7 0.83,0.93 0.36,0.23 0.8,0.34 1.32,0.34 z"
       id="path114"
       inkscape:connector-curvature="0"
       style="fill:#ffffff" />
    <path
       class="cls-1"
       d="m 73.42,82.64 -1.29,-0.5 1.36,-3.83 1.37,0.52 -1.44,3.82 z"
       id="path116"
       inkscape:connector-curvature="0"
       style="fill:#ffffff" />
    <path
       class="cls-1"
       d="m 82.21,80.59 c -1.02,0 -1.81,-0.21 -2.37,-0.64 -0.56,-0.43 -0.86,-1.02 -0.89,-1.78 h 1.51 c 0.02,0.28 0.16,0.54 0.43,0.77 0.27,0.23 0.71,0.35 1.33,0.35 0.52,0 0.93,-0.1 1.23,-0.31 0.3,-0.21 0.45,-0.46 0.45,-0.77 0,-0.28 -0.11,-0.5 -0.33,-0.67 -0.22,-0.16 -0.59,-0.27 -1.11,-0.33 l -0.74,-0.07 c -0.78,-0.08 -1.39,-0.31 -1.84,-0.69 -0.45,-0.37 -0.68,-0.88 -0.68,-1.51 0,-0.5 0.13,-0.93 0.38,-1.27 0.25,-0.35 0.6,-0.61 1.04,-0.8 0.44,-0.19 0.95,-0.28 1.53,-0.28 0.9,0 1.62,0.2 2.17,0.59 0.55,0.39 0.83,0.98 0.85,1.74 h -1.5 c -0.02,-0.29 -0.15,-0.53 -0.41,-0.73 -0.25,-0.2 -0.62,-0.29 -1.12,-0.29 -0.47,0 -0.82,0.09 -1.07,0.28 -0.25,0.19 -0.37,0.42 -0.37,0.71 0,0.26 0.09,0.47 0.28,0.62 0.19,0.15 0.49,0.25 0.91,0.29 l 0.74,0.07 c 0.85,0.09 1.52,0.33 2.02,0.71 0.5,0.38 0.75,0.9 0.75,1.57 0,0.49 -0.13,0.91 -0.41,1.27 -0.27,0.36 -0.65,0.65 -1.13,0.85 -0.48,0.2 -1.04,0.3 -1.67,0.3 z"
       id="path118"
       inkscape:connector-curvature="0"
       style="fill:#ffffff" />
    <path
       class="cls-1"
       d="m 86.57,80.37 v -1.53 l 3.92,-4.69 v 0.22 l -0.27,-0.36 0.21,0.1 h -3.89 v -1.29 h 5.56 v 1.53 l -3.92,4.69 v -0.2 l 0.28,0.38 -0.21,-0.14 h 4.03 v 1.29 z"
       id="path120"
       inkscape:connector-curvature="0"
       style="fill:#ffffff" />
    <path
       class="cls-1"
       d="m 95.6,80.2 -2.56,-7.38 h 1.67 l 2.45,7.38 h -1.55 z m -1.92,3.12 v -1.44 h 1.25 c 0.29,0 0.54,-0.04 0.74,-0.1 0.21,-0.07 0.37,-0.19 0.5,-0.36 0.13,-0.17 0.24,-0.4 0.32,-0.69 l 2.2,-7.9 h 1.58 l -2.38,8.29 c -0.15,0.52 -0.36,0.95 -0.62,1.27 -0.27,0.33 -0.6,0.57 -1.01,0.71 -0.41,0.15 -0.89,0.22 -1.46,0.22 z M 96,80.2 v -1.33 h 1.62 v 1.33 z"
       id="path122"
       inkscape:connector-curvature="0"
       style="fill:#ffffff" />
    <path
       class="cls-1"
       d="m 105.77,80.62 c -0.62,0 -1.17,-0.14 -1.65,-0.41 -0.48,-0.27 -0.86,-0.66 -1.13,-1.18 -0.28,-0.51 -0.43,-1.13 -0.46,-1.86 h 0.34 v 3.19 h -1.3 V 70.14 h 1.64 v 5.04 l -0.49,0.91 c 0.03,-0.8 0.18,-1.46 0.47,-1.98 0.28,-0.52 0.66,-0.9 1.13,-1.15 0.47,-0.25 0.99,-0.38 1.57,-0.38 0.53,0 1.02,0.1 1.45,0.29 0.43,0.2 0.81,0.47 1.12,0.82 0.31,0.35 0.55,0.76 0.71,1.23 0.16,0.47 0.25,0.97 0.25,1.51 v 0.28 c 0,0.54 -0.08,1.04 -0.25,1.51 -0.17,0.47 -0.41,0.88 -0.74,1.24 -0.32,0.36 -0.71,0.64 -1.15,0.85 -0.45,0.21 -0.95,0.31 -1.5,0.31 z m -0.29,-1.41 c 0.46,0 0.86,-0.11 1.2,-0.34 0.34,-0.22 0.61,-0.53 0.8,-0.93 0.19,-0.4 0.29,-0.85 0.29,-1.37 0,-0.52 -0.1,-0.98 -0.29,-1.37 -0.2,-0.39 -0.46,-0.69 -0.81,-0.9 -0.35,-0.21 -0.74,-0.32 -1.2,-0.32 -0.41,0 -0.79,0.09 -1.15,0.28 -0.36,0.19 -0.64,0.46 -0.85,0.8 -0.21,0.35 -0.32,0.77 -0.32,1.27 v 0.6 c 0,0.48 0.11,0.88 0.33,1.22 0.22,0.34 0.51,0.6 0.86,0.78 0.36,0.18 0.73,0.27 1.13,0.27 z"
       id="path124"
       inkscape:connector-curvature="0"
       style="fill:#ffffff" />
    <path
       class="cls-1"
       d="M 111.1,80.37 V 70.15 h 1.64 v 10.22 z m 5.24,0 -2.69,-3.51 h -1.18 l 3.32,-4.03 h 1.74 l -3.05,3.67 0.07,-0.84 3.67,4.72 h -1.88 z"
       id="path126"
       inkscape:connector-curvature="0"
       style="fill:#ffffff" />
    <path
       class="cls-1"
       d="m 122.44,80.62 c -0.66,0 -1.25,-0.11 -1.75,-0.33 -0.5,-0.22 -0.93,-0.51 -1.27,-0.88 -0.34,-0.36 -0.61,-0.78 -0.78,-1.24 -0.18,-0.46 -0.27,-0.94 -0.27,-1.44 v -0.28 c 0,-0.5 0.09,-0.98 0.27,-1.44 0.18,-0.47 0.45,-0.88 0.8,-1.25 0.35,-0.37 0.78,-0.66 1.28,-0.88 0.5,-0.21 1.08,-0.32 1.72,-0.32 0.64,0 1.22,0.11 1.71,0.32 0.49,0.21 0.93,0.51 1.28,0.88 0.35,0.37 0.62,0.79 0.8,1.25 0.18,0.46 0.27,0.95 0.27,1.44 v 0.28 c 0,0.5 -0.09,0.97 -0.27,1.44 -0.18,0.46 -0.44,0.88 -0.78,1.24 -0.34,0.36 -0.77,0.66 -1.27,0.88 -0.5,0.22 -1.09,0.33 -1.75,0.33 z m 0,-1.43 c 0.51,0 0.95,-0.11 1.32,-0.34 0.36,-0.23 0.64,-0.54 0.83,-0.93 0.19,-0.39 0.29,-0.83 0.29,-1.32 0,-0.49 -0.1,-0.94 -0.29,-1.33 -0.2,-0.39 -0.48,-0.7 -0.84,-0.93 -0.36,-0.23 -0.8,-0.34 -1.3,-0.34 -0.5,0 -0.94,0.12 -1.3,0.34 -0.36,0.23 -0.64,0.54 -0.84,0.93 -0.2,0.39 -0.29,0.83 -0.29,1.33 0,0.5 0.1,0.92 0.29,1.32 0.19,0.39 0.47,0.7 0.83,0.93 0.36,0.23 0.8,0.34 1.32,0.34 z"
       id="path128"
       inkscape:connector-curvature="0"
       style="fill:#ffffff" />
    <path
       class="cls-1"
       d="m 128.27,82.64 -1.29,-0.5 1.36,-3.83 1.37,0.52 -1.44,3.82 z"
       id="path130"
       inkscape:connector-curvature="0"
       style="fill:#ffffff" />
    <path
       class="cls-1"
       d="m 133.96,80.37 v -1.53 l 3.92,-4.69 v 0.22 l -0.27,-0.36 0.21,0.1 h -3.89 v -1.29 h 5.56 v 1.53 l -3.92,4.69 v -0.2 l 0.28,0.38 -0.21,-0.14 h 4.03 v 1.29 z"
       id="path132"
       inkscape:connector-curvature="0"
       style="fill:#ffffff" />
    <path
       class="cls-1"
       d="m 143.42,80.57 c -0.55,0 -1.03,-0.1 -1.44,-0.29 -0.41,-0.19 -0.73,-0.47 -0.95,-0.84 -0.22,-0.37 -0.34,-0.81 -0.34,-1.32 0,-0.54 0.13,-0.99 0.38,-1.34 0.25,-0.35 0.62,-0.62 1.1,-0.8 0.48,-0.18 1.05,-0.27 1.71,-0.27 h 1.89 v 1.08 h -1.93 c -0.49,0 -0.87,0.12 -1.13,0.36 -0.26,0.24 -0.39,0.55 -0.39,0.93 0,0.38 0.13,0.69 0.39,0.92 0.26,0.23 0.64,0.34 1.13,0.34 0.29,0 0.57,-0.05 0.83,-0.16 0.26,-0.11 0.48,-0.29 0.65,-0.54 0.17,-0.25 0.27,-0.61 0.29,-1.06 l 0.42,0.55 c -0.05,0.53 -0.17,0.98 -0.38,1.34 -0.21,0.36 -0.5,0.63 -0.87,0.83 -0.37,0.19 -0.82,0.29 -1.35,0.29 z m 2.45,-0.2 v -2.25 h -0.27 v -2.55 c 0,-0.47 -0.12,-0.82 -0.36,-1.06 -0.24,-0.24 -0.6,-0.36 -1.08,-0.36 -0.26,0 -0.55,0 -0.87,0.01 -0.32,0 -0.63,0.02 -0.93,0.04 -0.3,0.01 -0.57,0.03 -0.8,0.05 v -1.41 c 0.21,-0.02 0.43,-0.04 0.68,-0.05 0.25,-0.01 0.5,-0.03 0.77,-0.04 0.27,0 0.52,-0.01 0.76,-0.01 0.76,0 1.4,0.1 1.9,0.29 0.5,0.19 0.88,0.51 1.13,0.93 0.25,0.42 0.37,0.99 0.37,1.7 v 4.72 h -1.3 z"
       id="path134"
       inkscape:connector-curvature="0"
       style="fill:#ffffff" />
    <path
       class="cls-1"
       d="m 155.42,80.62 c -0.54,0 -1.03,-0.1 -1.48,-0.29 -0.44,-0.2 -0.83,-0.47 -1.16,-0.83 -0.33,-0.35 -0.59,-0.76 -0.76,-1.23 -0.18,-0.47 -0.27,-0.98 -0.27,-1.53 v -0.27 c 0,-0.54 0.09,-1.05 0.26,-1.52 0.17,-0.47 0.42,-0.88 0.74,-1.24 0.32,-0.36 0.7,-0.63 1.14,-0.83 0.44,-0.2 0.94,-0.3 1.48,-0.3 0.58,0 1.1,0.12 1.56,0.37 0.46,0.25 0.84,0.63 1.12,1.13 0.29,0.51 0.44,1.15 0.47,1.94 l -0.56,-0.77 v -5.11 h 1.64 v 10.22 h -1.3 v -3.28 h 0.36 c -0.03,0.81 -0.19,1.48 -0.5,2 -0.3,0.52 -0.69,0.91 -1.17,1.15 -0.48,0.25 -1,0.37 -1.57,0.37 z m 0.31,-1.41 c 0.42,0 0.8,-0.09 1.14,-0.28 0.34,-0.19 0.62,-0.46 0.83,-0.82 0.21,-0.36 0.31,-0.78 0.31,-1.27 v -0.6 c 0,-0.48 -0.11,-0.88 -0.32,-1.22 -0.21,-0.34 -0.5,-0.59 -0.84,-0.77 -0.34,-0.18 -0.72,-0.27 -1.13,-0.27 -0.46,0 -0.86,0.11 -1.21,0.33 -0.35,0.22 -0.62,0.53 -0.82,0.92 -0.2,0.39 -0.29,0.85 -0.29,1.37 0,0.52 0.1,0.99 0.3,1.39 0.2,0.39 0.48,0.69 0.83,0.9 0.35,0.21 0.76,0.31 1.2,0.31 z"
       id="path136"
       inkscape:connector-curvature="0"
       style="fill:#ffffff" />
    <path
       class="cls-1"
       d="m 163.88,80.57 c -0.55,0 -1.03,-0.1 -1.44,-0.29 -0.41,-0.19 -0.73,-0.47 -0.95,-0.84 -0.22,-0.37 -0.34,-0.81 -0.34,-1.32 0,-0.54 0.13,-0.99 0.38,-1.34 0.25,-0.35 0.62,-0.62 1.1,-0.8 0.48,-0.18 1.05,-0.27 1.71,-0.27 h 1.89 v 1.08 h -1.93 c -0.49,0 -0.87,0.12 -1.13,0.36 -0.26,0.24 -0.39,0.55 -0.39,0.93 0,0.38 0.13,0.69 0.39,0.92 0.26,0.23 0.64,0.34 1.13,0.34 0.29,0 0.57,-0.05 0.83,-0.16 0.26,-0.11 0.48,-0.29 0.65,-0.54 0.17,-0.25 0.27,-0.61 0.29,-1.06 l 0.42,0.55 c -0.05,0.53 -0.17,0.98 -0.38,1.34 -0.21,0.36 -0.5,0.63 -0.87,0.83 -0.37,0.19 -0.82,0.29 -1.35,0.29 z m 2.45,-0.2 v -2.25 h -0.27 v -2.55 c 0,-0.47 -0.12,-0.82 -0.36,-1.06 -0.24,-0.24 -0.6,-0.36 -1.08,-0.36 -0.26,0 -0.55,0 -0.87,0.01 -0.32,0 -0.63,0.02 -0.93,0.04 -0.3,0.01 -0.57,0.03 -0.8,0.05 v -1.41 c 0.21,-0.02 0.43,-0.04 0.68,-0.05 0.25,-0.01 0.5,-0.03 0.77,-0.04 0.27,0 0.52,-0.01 0.76,-0.01 0.76,0 1.4,0.1 1.9,0.29 0.5,0.19 0.88,0.51 1.13,0.93 0.25,0.42 0.37,0.99 0.37,1.7 v 4.72 h -1.3 z"
       id="path138"
       inkscape:connector-curvature="0"
       style="fill:#ffffff" />
    <path
       class="cls-1"
       d="m 169.68,80.37 v -7.55 h 1.3 v 3.15 h -0.06 c 0,-1.08 0.24,-1.89 0.71,-2.43 0.48,-0.54 1.18,-0.8 2.11,-0.8 h 0.27 v 1.44 h -0.5 c -0.71,0 -1.25,0.19 -1.63,0.57 -0.38,0.38 -0.57,0.92 -0.57,1.62 v 4 h -1.64 z"
       id="path140"
       inkscape:connector-curvature="0"
       style="fill:#ffffff" />
    <path
       class="cls-1"
       d="m 175.27,80.37 v -7.55 h 1.3 v 3.25 h -0.15 c 0,-0.75 0.1,-1.38 0.29,-1.89 0.19,-0.51 0.48,-0.91 0.87,-1.18 0.39,-0.27 0.87,-0.41 1.45,-0.41 h 0.07 c 0.59,0 1.08,0.13 1.46,0.41 0.39,0.27 0.68,0.66 0.87,1.18 0.19,0.51 0.29,1.14 0.29,1.89 h -0.45 c 0,-0.75 0.1,-1.38 0.29,-1.89 0.2,-0.51 0.49,-0.91 0.88,-1.18 0.39,-0.27 0.88,-0.41 1.46,-0.41 h 0.07 c 0.59,0 1.08,0.13 1.47,0.41 0.39,0.27 0.69,0.66 0.88,1.18 0.2,0.51 0.29,1.14 0.29,1.89 v 4.3 h -1.64 v -4.54 c 0,-0.55 -0.14,-0.98 -0.41,-1.29 -0.28,-0.31 -0.66,-0.46 -1.14,-0.46 -0.48,0 -0.91,0.16 -1.2,0.48 -0.3,0.32 -0.45,0.77 -0.45,1.34 v 4.47 h -1.65 v -4.54 c 0,-0.55 -0.14,-0.98 -0.41,-1.29 -0.27,-0.31 -0.65,-0.46 -1.13,-0.46 -0.48,0 -0.91,0.16 -1.21,0.48 -0.3,0.32 -0.46,0.77 -0.46,1.34 v 4.47 z"
       id="path142"
       inkscape:connector-curvature="0"
       style="fill:#ffffff" />
    <path
       class="cls-1"
       d="m 192.25,80.62 c -0.66,0 -1.25,-0.11 -1.75,-0.33 -0.5,-0.22 -0.93,-0.51 -1.27,-0.88 -0.34,-0.36 -0.61,-0.78 -0.78,-1.24 -0.18,-0.46 -0.27,-0.94 -0.27,-1.44 v -0.28 c 0,-0.5 0.09,-0.98 0.27,-1.44 0.18,-0.47 0.45,-0.88 0.8,-1.25 0.35,-0.37 0.78,-0.66 1.28,-0.88 0.5,-0.21 1.08,-0.32 1.72,-0.32 0.64,0 1.22,0.11 1.71,0.32 0.49,0.21 0.93,0.51 1.28,0.88 0.35,0.37 0.62,0.79 0.8,1.25 0.18,0.46 0.27,0.95 0.27,1.44 v 0.28 c 0,0.5 -0.09,0.97 -0.27,1.44 -0.18,0.46 -0.44,0.88 -0.78,1.24 -0.34,0.36 -0.77,0.66 -1.27,0.88 -0.5,0.22 -1.09,0.33 -1.75,0.33 z m 0,-1.43 c 0.51,0 0.95,-0.11 1.32,-0.34 0.36,-0.23 0.64,-0.54 0.83,-0.93 0.19,-0.39 0.29,-0.83 0.29,-1.32 0,-0.49 -0.1,-0.94 -0.29,-1.33 -0.2,-0.39 -0.48,-0.7 -0.84,-0.93 -0.36,-0.23 -0.8,-0.34 -1.3,-0.34 -0.5,0 -0.94,0.12 -1.3,0.34 -0.36,0.23 -0.64,0.54 -0.84,0.93 -0.2,0.39 -0.29,0.83 -0.29,1.33 0,0.5 0.1,0.92 0.29,1.32 0.19,0.39 0.47,0.7 0.83,0.93 0.36,0.23 0.8,0.34 1.32,0.34 z"
       id="path144"
       inkscape:connector-curvature="0"
       style="fill:#ffffff" />
    <path
       class="cls-1"
       d="m 197.93,80.37 v -1.89 h 1.96 v 1.89 z m 0.14,-3.19 v -7.03 h 1.68 v 7.03 z"
       id="path146"
       inkscape:connector-curvature="0"
       style="fill:#ffffff" />
  </g>
  <text
     xml:space="preserve"
     style="font-style:normal;font-variant:normal;font-weight:normal;font-stretch:normal;font-size:40px;line-height:1.25;font-family:Arial;-inkscape-font-specification:Arial;letter-spacing:0px;word-spacing:0px;fill:#000000;fill-opacity:1;stroke:none"
     x="10.643028"
     y="49.957108"
     id="text5064"><tspan
       sodipodi:role="line"
       id="tspan5062"
       x="10.643028"
       y="49.957108"
       style="font-style:normal;font-variant:normal;font-weight:bold;font-stretch:condensed;font-size:17.33333397px;font-family:Arial;-inkscape-font-specification:'Arial Bold Condensed';fill:#ffffff;fill-opacity:1">KRS 0000094513</tspan></text>
</svg>
